<svg width="48" height="48" viewBox="0 0 48 48" fill="none" xmlns="http://www.w3.org/2000/svg">
<circle cx="24" cy="24" r="24" fill="#FFDE40"/>
<path d="M12.75 22.5C11.9216 22.5 11.25 23.1716 11.25 24C11.25 24.8284 11.9216 25.5 12.75 25.5L12.75 22.5ZM36.3107 25.0607C36.8964 24.4749 36.8964 23.5251 36.3107 22.9393L26.7647 13.3934C26.1789 12.8076 25.2292 12.8076 24.6434 13.3934C24.0576 13.9792 24.0576 14.9289 24.6434 15.5147L33.1287 24L24.6434 32.4853C24.0576 33.0711 24.0576 34.0208 24.6434 34.6066C25.2292 35.1924 26.1789 35.1924 26.7647 34.6066L36.3107 25.0607ZM12.75 25.5L35.25 25.5L35.25 22.5L12.75 22.5L12.75 25.5Z" fill="#21201F"/>
</svg>
