<svg width="48" height="48" viewBox="0 0 48 48" fill="none" xmlns="http://www.w3.org/2000/svg">
<circle cx="24" cy="24" r="24" transform="matrix(-1 0 0 1 48 0)" fill="#FFDE40"/>
<path d="M35 22.5C35.8284 22.5 36.5 23.1716 36.5 24C36.5 24.8284 35.8284 25.5 35 25.5L35 22.5ZM11.4393 25.0607C10.8536 24.4749 10.8536 23.5251 11.4393 22.9393L20.9853 13.3934C21.5711 12.8076 22.5208 12.8076 23.1066 13.3934C23.6924 13.9792 23.6924 14.9289 23.1066 15.5147L14.6213 24L23.1066 32.4853C23.6924 33.0711 23.6924 34.0208 23.1066 34.6066C22.5208 35.1924 21.5711 35.1924 20.9853 34.6066L11.4393 25.0607ZM35 25.5L12.5 25.5L12.5 22.5L35 22.5L35 25.5Z" fill="#21201F"/>
</svg>
